<?xml version="1.0" standalone="no"?><!DOCTYPE svg PUBLIC "-//W3C//DTD SVG 1.1//EN" "http://www.w3.org/Graphics/SVG/1.1/DTD/svg11.dtd"><svg t="1635306873541" class="icon" viewBox="0 0 1024 1024" version="1.1" xmlns="http://www.w3.org/2000/svg" p-id="6285" xmlns:xlink="http://www.w3.org/1999/xlink" width="200" height="200"><defs><style type="text/css"></style></defs><path d="M896 496.896a25.6 25.6 0 0 1 51.2 0V768a179.2 179.2 0 0 1-179.2 179.2H256a179.2 179.2 0 0 1-179.2-179.2V256a179.2 179.2 0 0 1 179.2-179.2h313.1392a25.6 25.6 0 0 1 0 51.2H256a128 128 0 0 0-128 128v512a128 128 0 0 0 128 128h512a128 128 0 0 0 128-128V496.896z m-5.9392-373.5296a25.6 25.6 0 1 1 37.4784 34.8672L547.2 567.0912a25.6 25.6 0 0 1-37.4784-34.8672L890.0608 123.3664z" p-id="6286"></path></svg>